<?xml version="1.0" standalone="no"?>
<!DOCTYPE svg PUBLIC "-//W3C//DTD SVG 20010904//EN"
 "http://www.w3.org/TR/2001/REC-SVG-20010904/DTD/svg10.dtd">
<svg version="1.0" xmlns="http://www.w3.org/2000/svg"
 width="300.000000pt" height="158.000000pt" viewBox="0 0 300.000000 158.000000"
 preserveAspectRatio="xMidYMid meet">
<metadata>
Created by potrace 1.10, written by Peter Selinger 2001-2011
</metadata>
<g transform="translate(0.000000,158.000000) scale(0.100000,-0.100000)"
fill="#000000" stroke="none">
<path fill="#ffc234" d="M1122 1474 c-58 -29 -45 -10 -293 -439 -103 -178 -104 -181 -104
-245 0 -64 1 -67 104 -245 248 -429 235 -410 293 -439 l52 -26 320 0 c197 0
336 4 359 11 22 6 54 25 72 42 18 18 107 160 196 317 213 372 211 312 19 645
-79 138 -154 269 -168 292 -29 53 -72 89 -120 103 -22 6 -168 10 -358 10
l-320 0 -52 -26z m754 -24 c46 -23 52 -31 109 -135 21 -38 51 -89 67 -112 15
-23 28 -44 28 -48 0 -7 95 -171 143 -249 27 -42 31 -59 31 -115 0 -63 -3 -70
-66 -176 -36 -60 -79 -133 -94 -161 -16 -28 -51 -89 -78 -135 -26 -46 -59
-102 -71 -124 -14 -25 -39 -49 -66 -62 -41 -23 -49 -23 -373 -23 -274 0 -337
3 -371 16 -40 15 -59 37 -115 138 -12 22 -32 55 -46 75 -13 20 -24 39 -24 42
0 4 -30 58 -66 120 -160 275 -163 286 -100 404 21 39 42 72 47 73 5 2 9 9 9
14 0 6 25 54 55 105 30 52 55 97 55 100 0 2 9 18 20 33 11 16 34 55 51 87 43
81 75 121 112 137 25 11 104 15 366 15 318 1 337 0 377 -19z"/>
<path fill="#ffc234" d="M1444 1256 c-38 -38 -36 -19 -35 -293 0 -170 9 -201 61 -228 39 -20
42 -20 84 18 l36 33 0 212 c0 130 -4 220 -11 235 -12 26 -57 57 -84 57 -9 0
-32 -15 -51 -34z m98 -13 c16 -15 18 -36 18 -234 0 -209 -1 -219 -21 -238 -22
-20 -61 -20 -86 1 -10 8 -13 64 -13 234 0 189 2 225 16 238 20 21 63 20 86 -1z"/>
<path fill="#ffc234" d="M1229 1182 c-43 -28 -109 -97 -109 -114 0 -5 -9 -18 -20 -30 -11 -12
-20 -30 -20 -39 0 -10 -4 -20 -9 -23 -14 -9 -34 -163 -28 -210 26 -187 178
-355 357 -395 188 -43 390 45 492 214 36 59 68 168 68 230 0 142 -118 350
-221 387 -23 9 -75 -19 -88 -48 -19 -42 -13 -57 47 -120 65 -67 92 -129 92
-212 0 -217 -219 -361 -410 -270 -75 37 -103 63 -139 132 -25 47 -31 70 -31
121 0 86 26 160 73 209 90 95 95 112 41 162 -19 19 -39 34 -43 34 -4 0 -27
-13 -52 -28z m79 -18 c36 -25 29 -63 -24 -113 -69 -66 -99 -137 -99 -236 0
-69 4 -89 30 -138 54 -109 144 -168 265 -175 138 -8 250 58 306 180 24 52 29
76 28 138 0 96 -25 154 -99 231 -30 32 -55 62 -55 67 0 19 42 62 61 62 11 0
45 -23 75 -52 137 -129 172 -332 88 -505 -53 -108 -185 -210 -294 -228 -19 -3
-47 -8 -61 -11 -43 -8 -147 13 -216 45 -83 39 -161 119 -205 208 -31 64 -33
74 -33 178 0 104 2 114 34 182 24 51 51 89 92 128 62 59 73 63 107 39z"/>
</g>
</svg>
